# Blender 3.5.1
# www.blender.org
mtllib house_tile.mtl
o Cube.003
v 0.766883 0.464735 -0.766883
v 1.000000 0.000000 -1.000000
v 0.766883 0.464735 0.766883
v 1.000000 0.000000 1.000000
v -0.766883 0.464735 -0.766883
v -1.000000 0.000000 -1.000000
v -0.766883 0.464735 0.766883
v -1.000000 0.000000 1.000000
v 1.000000 0.464735 1.000000
v -1.000000 0.464735 1.000000
v 1.000000 0.464735 -1.000000
v -1.000000 0.464735 -1.000000
v 0.766883 1.756444 0.766883
v -0.766883 1.756444 0.766883
v 0.766883 1.756444 -0.766883
v -0.766883 1.756444 -0.766883
v 0.766883 2.415694 0.060184
v -0.766883 2.415694 0.060184
v 0.766883 2.415694 -0.060184
v -0.766883 2.415694 -0.060184
vn -0.0000 -0.0000 -1.0000
vn -0.0000 -0.0000 1.0000
vn -1.0000 -0.0000 -0.0000
vn -0.0000 -1.0000 -0.0000
vn 1.0000 -0.0000 -0.0000
vn -0.0000 1.0000 -0.0000
vn -0.0000 0.7312 0.6821
vn -0.0000 0.7312 -0.6821
vt 0.654140 0.529140
vt 0.375000 0.500000
vt 0.654140 0.720860
vt 0.375000 0.750000
vt 0.845860 0.529140
vt 0.125000 0.500000
vt 0.375000 0.250000
vt 0.845860 0.720860
vt 0.375000 1.000000
vt 0.375000 0.000000
vt 0.125000 0.750000
vt 0.625000 0.750000
vt 0.625000 1.000000
vt 0.625000 0.000000
vt 0.875000 0.750000
vt 0.625000 0.500000
vt 0.625000 0.250000
vt 0.875000 0.500000
vt 0.654140 0.720860
vt 0.845860 0.720860
vt 0.654140 0.529140
vt 0.845860 0.529140
vt 0.654140 0.720860
vt 0.845860 0.720860
vt 0.654140 0.529140
vt 0.845860 0.529140
s 0
usemtl Material.005
f 4/4/2 9/12/2 10/13/2 8/9/2
f 8/10/3 10/14/3 12/17/3 6/7/3
f 6/6/4 2/2/4 4/4/4 8/11/4
f 2/2/5 11/16/5 9/12/5 4/4/5
f 6/7/1 12/17/1 11/16/1 2/2/1
f 3/3/6 7/8/6 10/15/6 9/12/6
f 1/1/6 3/3/6 9/12/6 11/16/6
f 7/8/6 5/5/6 12/18/6 10/15/6
f 5/5/6 1/1/6 11/16/6 12/18/6
usemtl Material.006
f 1/1/1 5/5/1 16/22/1 15/21/1
f 3/3/5 1/1/5 15/21/5 13/19/5
f 5/5/3 7/8/3 14/20/3 16/22/3
f 7/8/2 3/3/2 13/19/2 14/20/2
usemtl Material.007
f 16/22/3 14/20/3 18/24/3 20/26/3
f 19/25/6 20/26/6 18/24/6 17/23/6
f 14/20/7 13/19/7 17/23/7 18/24/7
f 15/21/8 16/22/8 20/26/8 19/25/8
f 13/19/5 15/21/5 19/25/5 17/23/5
